PathFileType	4	(X/Y/Z)	57_2_11_p0_0-447.trc
DataRate	CameraRate	NumFrames	NumMarkers	Units	OrigDataRate	OrigDataStartFrame	OrigNumFrames
60.0	60.0	6	27	m	60.0	392	448
Frame#	Time	RHip			RKnee			RAnkle			RBigToe			RSmallToe			RHeel			LHip			LKnee			LAnkle			LBigToe			LSmallToe			LHeel			Neck			Head			Nose			RShoulder			RElbow			RWrist			RThumb			RIndex			RPinky			LShoulder			LElbow			LWrist			LThumb			LIndex			LPinky			
		X1	Y1	Z1	X2	Y2	Z2	X3	Y3	Z3	X4	Y4	Z4	X5	Y5	Z5	X6	Y6	Z6	X7	Y7	Z7	X8	Y8	Z8	X9	Y9	Z9	X10	Y10	Z10	X11	Y11	Z11	X12	Y12	Z12	X13	Y13	Z13	X14	Y14	Z14	X15	Y15	Z15	X16	Y16	Z16	X17	Y17	Z17	X18	Y18	Z18	X19	Y19	Z19	X20	Y20	Z20	X21	Y21	Z21	X22	Y22	Z22	X23	Y23	Z23	X24	Y24	Z24	X25	Y25	Z25	X26	Y26	Z26	X27	Y27	Z27	
392	6.533333333333333	0.2687390671207186	0.5918720851567224	0.9696418691583636	0.2830941320903198	0.5853698009820396	1.3863489307167958	0.25361484305923154	0.8154106044520687	1.7704179842048455	0.26323428883298555	0.7111882401243314	1.8284150215129646	0.31718810452602664	0.7262614067638961	1.8163144926196513	0.23331694481770618	0.9273901090213247	1.831674416123178	0.08380169241324054	0.5147150738108464	0.971556224099606	0.0748249423913847	0.6185592506650376	1.4027529122995732	0.05935349033872678	0.8407068233729315	1.7827742236557793	0.11202209065546248	0.7102703224172787	1.8222768548948955	0.06309386937945467	0.6570708381992197	1.8018649879150401	0.06070751807050809	0.8895107828309327	1.8353234926432551	0.23152607435672629	0.2362111367020392	0.5440631914594873	0.2479092254766629	0.09792608116867672	0.35158515534038964	0.2530007471137017	0.044780646979480386	0.49036395482214096	0.3447984746551372	0.308792940965127	0.5860427201709485	0.42626026168023334	0.48373267666004305	0.7870101275950564	0.4488619562425691	0.3928279810918169	0.9942261596895665	0.4082091972061983	0.3322745723354965	1.093049848146729	0.42256454693424605	0.3408597478355888	1.1075099803048627	0.4604533122841639	0.4273021245322056	1.1183131366421732	0.08644112245127873	0.21101122213079013	0.5937937449344347	-0.03961151921582692	0.4615993683892054	0.7194692803950246	0.06662223520473944	0.42675881662387716	0.8586821596979527	0.14862828158748365	0.4046657878425829	0.8941159017168252	0.14788307851558374	0.40255741018622454	0.9205552170870406	0.08930939063271527	0.46896413851639607	0.9419480643370134
393	6.55	0.269027656918331	0.5915298303096849	0.9699944999214851	0.27912454445642904	0.6003671907912118	1.389037699672175	0.2535862775404995	0.8351144177797284	1.7712722254482989	0.262735010172799	0.7116477092624334	1.8242759053305624	0.31767155062000224	0.7242702992677637	1.8120685351995627	0.22953293195875943	0.9461967824282919	1.8370961660974376	0.0834973031811872	0.5148792950278499	0.9673255447382596	0.0745848657171427	0.6194621092819925	1.403132911614328	0.05932045506506299	0.8408390132108352	1.7829661023654237	0.10773573205537139	0.6923722818783401	1.813703730776676	0.058640245933928914	0.6721332167321339	1.8064641902306968	0.06166696083674549	0.8879767563516489	1.830150080107125	0.22678963961847962	0.2454143836766588	0.5319434944315982	0.23842664786916026	0.0828728614914374	0.3351734196439061	0.2451570645439058	0.04390943655740607	0.4774051652145713	0.3360172089305664	0.297467822092521	0.5807569071004757	0.420657168069506	0.4661446658139923	0.7799228751032599	0.44323553887844813	0.38870552432439587	0.9872028580125451	0.39260881860150026	0.34627567695356803	1.0877513496358524	0.403400227211986	0.3630250051891367	1.1000793458025908	0.44846845575324834	0.42929002418270884	1.1191910879620448	0.08633241676298775	0.2106891203713355	0.58568856009941	-0.04047582316499429	0.4585852355121581	0.7106305240151268	0.05854914167114541	0.40890501692205294	0.8520878788481061	0.14325012732351639	0.4015555222727584	0.8908508793778536	0.14224497060708394	0.40060209955232645	0.9200026441327704	0.08323991512754707	0.47018366200224926	0.9424420462526103
394	6.566666666666666	0.2726366788786672	0.5780595963342848	0.9769809227635037	0.2794731805714236	0.601932680816315	1.389338219648729	0.24909725279628162	0.8336144492854948	1.7711075093514028	0.2598724547147013	0.7266664434126182	1.824690760887022	0.3171623420500403	0.7265072036376243	1.807930118345487	0.2301476642154755	0.9435045170210157	1.8322610583098062	0.08376761042814049	0.5147716775938537	0.971236480656991	0.073913110088066	0.6158297980754122	1.4024064830581287	0.0599795464723812	0.8400107814738157	1.786751791259863	0.10775349414157742	0.6926649309319177	1.8135996854874596	0.05941322996618214	0.6707327576573889	1.8026639201453054	0.06178457064037272	0.8878003311032499	1.8300730815763904	0.2230427911659021	0.25578034410076655	0.5272732757011961	0.23415341504610437	0.09115171885063252	0.3234429357791879	0.23552884846657238	0.0549978637867912	0.47547285601019434	0.3306657387525371	0.2957354570968691	0.5772892982099327	0.41502915874727975	0.46655043931916157	0.7717200132922445	0.422988531860765	0.4044397793682796	0.9927501646798792	0.3876671008824135	0.3401992824354936	1.074817202501376	0.39459062869140726	0.35998815114797794	1.090627647685658	0.41688470568213976	0.46381609162874526	1.1132222206190006	0.07803061500584779	0.22038816871005018	0.5807162447924733	-0.05057096366567881	0.46609843972940834	0.707447771052395	0.049610261846515465	0.3901533765833051	0.8463329946430946	0.13881130316898743	0.3998335188835122	0.8879984869618361	0.1380396165655735	0.39904774135424437	0.916308721994053	0.08574334711640433	0.453401243696826	0.9310279816754996
395	6.583333333333333	0.27135568729160914	0.5799196534108629	0.9724622146518683	0.27030360797093794	0.6319232513239162	1.3868238614993935	0.24900878224530465	0.833901712098924	1.771108251462447	0.26359949570755087	0.710156638593703	1.8195983076018762	0.31731890240065364	0.7263778924559899	1.8077784993436665	0.2300597530825715	0.9439520501222045	1.8321547839797505	0.08302213857042423	0.516435270002052	0.9701556520356646	0.06776848995944751	0.627995434119907	1.3963024749701276	0.059141358903669866	0.8354002923108127	1.7728906489984344	0.10771827312914505	0.6925232262676201	1.813413558048464	0.059400492502832844	0.67066728137644	1.8025001681683885	0.0605765699517371	0.8843886313333313	1.8246828984768915	0.20704979963658326	0.2543637809356798	0.5246041940447297	0.22297498653003545	0.08960376058308359	0.31771526072590217	0.2209345443998089	0.06340768589906201	0.4653630547531547	0.32587711097009925	0.2945975650605806	0.570243450818519	0.4062679018777612	0.4653501447332239	0.7566656381138633	0.3966867883105295	0.44511967016930554	0.9845822582681218	0.38072335000511204	0.36364411319230977	1.0735078394385844	0.385462049963534	0.35756221868275495	1.0836086163426515	0.39267318224118286	0.47568765663907375	1.111429509339413	0.07365940836493381	0.21857992382291364	0.581374143582816	-0.06007961921443844	0.4774156748334849	0.7067838100757046	0.044695767943322466	0.38854752629163725	0.8503720568742171	0.1311382080288594	0.39521621683375563	0.8881038174244166	0.12657748505207114	0.384932417250502	0.9169148409963781	0.08138210851070234	0.4671990034747862	0.9343165378243358
396	6.6	0.26718606597666866	0.5790551328570133	0.9725215366443258	0.27455711663880156	0.6169115290261477	1.3880918848240251	0.24494769358982302	0.8517955280436813	1.7762249978041624	0.2598133204164814	0.7269978949576765	1.8246678469709623	0.31356630572978866	0.7435139983035612	1.8129980631977738	0.23003052676663097	0.9442773150281454	1.8325118764672246	0.08297153079349699	0.5164192023136337	0.970332519484487	0.059039615019925065	0.6461860745381727	1.400147955644457	0.06034998930220091	0.8391915764411472	1.77833897258133	0.10447472396516172	0.6772370629049723	1.8092747904945123	0.058323436742224004	0.667095950802448	1.7974562891756787	0.06199506198460159	0.8884039936301306	1.8301747661593415	0.20641529635248523	0.25369340633524484	0.5176998683952578	0.22225416670868056	0.08858112806125398	0.3148981293332529	0.21290742703379018	0.0738604008472374	0.46364093240316145	0.3246255045342115	0.2915042870449167	0.5598029029270695	0.4020976904014258	0.48989814306671603	0.7477443671831504	0.37933044889762124	0.4429423354512841	0.9779652451347798	0.3571681885254157	0.40786394808943044	1.0756816622198118	0.367975787473415	0.4274826339919285	1.0916304188995696	0.3822141452570349	0.46023494475275323	1.1073279046174598	0.06842692138245945	0.22801211548277486	0.5702190499466896	-0.0642707168044203	0.47745324371877484	0.711713080622913	0.04025446292480911	0.3864590900288225	0.8509025220008731	0.1270636144131168	0.3897213013711313	0.8809207565061674	0.12651116211031782	0.3837185870554442	0.909567765408235	0.08229538761286055	0.44189339396625194	0.9337397389963636
397	6.616666666666666	0.2632539717910108	0.5929008928949924	0.9653485296470954	0.27116817760218487	0.6334995990577837	1.3909619392289916	0.24898551870933777	0.8338933292415263	1.7712538082968539	0.2557608129011064	0.7119396375409622	1.8208110601678047	0.3095023046144783	0.7276374004174719	1.8091902072395325	0.22923168998295865	0.9462617338703687	1.8362596089020078	0.08291906906994947	0.5165263434075199	0.9697149700940817	0.053955216156146776	0.6617680891142569	1.402587839392979	0.05914216606034259	0.8359733075670202	1.7729824014053657	0.10439385952279369	0.6776256037166417	1.8093115773820319	0.05379460722794248	0.682504408620599	1.802075079218104	0.06021112689552043	0.8856031970172429	1.8212358043495565	0.19452377913146215	0.24103933211067188	0.5166769298428163	0.21525030657533434	0.0895762722531945	0.30805207981616917	0.21134932030003087	0.07109294910625992	0.4512211728426121	0.3206735619403665	0.30205816456593115	0.5550606660424113	0.3943668032659473	0.4903436310164281	0.7411053229018737	0.3700820832347131	0.4304850642713369	0.9742631468267171	0.35429682353579606	0.41662553440788186	1.0612808823850095	0.36042540003060186	0.4332372483148526	1.0774850798149347	0.3742511343353403	0.46210664382464517	1.1007633833192967	0.06354342931736928	0.22473301772439536	0.5635606477587795	-0.0702020685305908	0.48729264786088416	0.7041468859732138	0.03775040538466741	0.37349306089568146	0.8478985315777005	0.13224279794331045	0.39587405641024276	0.8875612257132007	0.13019023790728637	0.385249251748455	0.9094240461863414	0.07634590345039263	0.44213157805950964	0.9344310547785729
